<svg width="8" height="8" viewBox="0 0 8 8" fill="none" xmlns="http://www.w3.org/2000/svg">
<path fill-rule="evenodd" clip-rule="evenodd" d="M4.76565 0H2.85098H2.37495H0.476079H5.09303e-05L0 0.476027V2.39157V2.86759V2.87093L5.09303e-05 4.76911L0 5.24514L5.09303e-05 7.14706L0 7.62308H0.476079H2.37495H2.85098H4.76565H5.24168H7.14041H7.61644V7.14706V5.24514V4.76911V2.86759V2.39157V0.476027V0H7.14041H5.24168H4.76565ZM0.476079 7.14706H2.37495V5.24514H0.476079V7.14706ZM0.476079 4.76911H2.37495V2.87093H0.476079V4.76911ZM7.14041 5.24514V7.14706H5.24168V5.24514H7.14041ZM7.14041 2.86759V4.76911H5.24168V2.86759H7.14041ZM7.14041 0.476027V2.39157H5.24168V0.476027H7.14041ZM4.76565 0.476027H2.85098V2.39157H4.76565V0.476027ZM4.76565 2.86759H2.85098V2.87093V4.76911H4.76565V2.86759ZM4.76565 5.24514H2.85098V7.14706H4.76565V5.24514Z" fill="#6B6B6B"/>
</svg>
