<svg width="8" height="39" viewBox="0 0 8 39" fill="none" xmlns="http://www.w3.org/2000/svg">
<g clip-path="url(#clip0_576_19987)">
<g clip-path="url(#clip1_576_19987)">
<path d="M4.41807 -4.65617C4.27864 -4.7956 4.05259 -4.7956 3.91316 -4.65617L1.6411 -2.38411C1.50167 -2.24468 1.50167 -2.01863 1.6411 -1.87921C1.78052 -1.73978 2.00658 -1.73978 2.146 -1.87921L4.16561 -3.89882L6.18523 -1.87921C6.32465 -1.73978 6.55071 -1.73978 6.69013 -1.87921C6.82956 -2.01863 6.82956 -2.24468 6.69013 -2.38411L4.41807 -4.65617ZM3.91316 18.698C4.05259 18.8375 4.27864 18.8375 4.41807 18.698L6.69013 16.426C6.82956 16.2866 6.82956 16.0605 6.69013 15.9211C6.55071 15.7816 6.32465 15.7816 6.18523 15.9211L4.16561 17.9407L2.146 15.9211C2.00658 15.7816 1.78052 15.7816 1.6411 15.9211C1.50167 16.0605 1.50167 16.2866 1.6411 16.426L3.91316 18.698ZM4.16561 -4.40372H3.80859L3.80859 18.4456H4.16561H4.52263L4.52263 -4.40372H4.16561Z" fill="#0D69D4"/>
<path d="M4.41807 19.3829C4.27864 19.2435 4.05259 19.2435 3.91316 19.3829L1.6411 21.655C1.50167 21.7944 1.50167 22.0204 1.6411 22.1599C1.78052 22.2993 2.00658 22.2993 2.146 22.1599L4.16561 20.1402L6.18523 22.1599C6.32465 22.2993 6.55071 22.2993 6.69013 22.1599C6.82956 22.0204 6.82956 21.7944 6.69013 21.655L4.41807 19.3829ZM3.91316 42.7371C4.05259 42.8765 4.27864 42.8765 4.41807 42.7371L6.69013 40.465C6.82956 40.3256 6.82956 40.0996 6.69013 39.9601C6.55071 39.8207 6.32465 39.8207 6.18523 39.9601L4.16561 41.9797L2.146 39.9601C2.00658 39.8207 1.78052 39.8207 1.6411 39.9601C1.50167 40.0996 1.50167 40.3256 1.6411 40.465L3.91316 42.7371ZM4.16561 19.6353H3.80859L3.80859 42.4847H4.16561H4.52263L4.52263 19.6353H4.16561Z" fill="#0D69D4"/>
</g>
</g>
<defs>
<clipPath id="clip0_576_19987">
<rect width="38.0822" height="7.61644" fill="white" transform="matrix(0 1 -1 0 7.61719 0)"/>
</clipPath>
<clipPath id="clip1_576_19987">
<rect width="47.6027" height="7.61644" fill="white" transform="matrix(0 1 -1 0 7.61719 -4.76074)"/>
</clipPath>
</defs>
</svg>
